<svg xmlns="http://www.w3.org/2000/svg"  viewBox="0 0 100 100" width="200px" height="200px"><path fill="#a3a3cd" d="M50.268 9A22 22 0 1 0 50.268 53A22 22 0 1 0 50.268 9Z"/><path fill="#1f212b" d="M50.268,54c-12.683,0-23-10.318-23-23s10.317-23,23-23s23,10.318,23,23S62.95,54,50.268,54z M50.268,10c-11.579,0-21,9.42-21,21s9.421,21,21,21s21-9.42,21-21S61.847,10,50.268,10z"/><path fill="#1f212b" d="M50.268,61c-0.553,0-1-0.448-1-1v-7c0-0.552,0.447-1,1-1s1,0.448,1,1v7C51.268,60.552,50.82,61,50.268,61z"/><path fill="#fcba7f" d="M50.268,90L50.268,90c-2.75,0-5-2.25-5-5V65c0-2.75,2.25-5,5-5h0c2.75,0,5,2.25,5,5v20C55.268,87.75,53.018,90,50.268,90z"/><path fill="#1f212b" d="M50.268,91c-3.309,0-6-2.691-6-6V65c0-3.309,2.691-6,6-6s6,2.691,6,6v20C56.268,88.309,53.576,91,50.268,91z M50.268,61c-2.206,0-4,1.794-4,4v20c0,2.206,1.794,4,4,4s4-1.794,4-4V65C54.268,62.794,52.474,61,50.268,61z"/><path fill="#fed5b3" d="M50.268,60.953c-2.2,0-4,1.656-4,3.679V65h0.8h7.2v-0.368C54.268,62.609,52.468,60.953,50.268,60.953z"/><path fill="#78cdd4" d="M50.268 13.5A17.5 17.5 0 1 0 50.268 48.5A17.5 17.5 0 1 0 50.268 13.5Z"/><path fill="#1f212b" d="M50.268 49c-9.925 0-18-8.075-18-18s8.075-18 18-18 18 8.075 18 18S60.193 49 50.268 49zM50.268 14c-9.374 0-17 7.626-17 17s7.626 17 17 17 17-7.626 17-17S59.642 14 50.268 14zM55.768 66h-9c-.276 0-.5-.224-.5-.5s.224-.5.5-.5h9c.276 0 .5.224.5.5S56.044 66 55.768 66zM47.768 80c-.276 0-.5-.224-.5-.5v-11c0-.276.224-.5.5-.5s.5.224.5.5v11C48.268 79.776 48.044 80 47.768 80zM47.768 84c-.276 0-.5-.224-.5-.5v-2c0-.276.224-.5.5-.5s.5.224.5.5v2C48.268 83.776 48.044 84 47.768 84z"/></svg>